<svg width="34" height="22" viewBox="0 0 34 22" fill="none" xmlns="http://www.w3.org/2000/svg">
<path fill-rule="evenodd" clip-rule="evenodd" d="M8.63406 0.727295C4.35442 0.727295 0.884888 3.24306 0.884888 3.24306L0.892652 11.0776C0.892652 17.5469 8.63406 21.2856 8.63406 21.2856C8.63406 21.2856 16.3768 17.7631 16.3768 11.0582C16.3768 4.35471 16.3794 3.24435 16.3794 3.24435C16.3794 3.24435 12.9111 0.727295 8.63406 0.727295ZM8.71559 18.8372C8.71559 18.8372 2.11559 15.9125 2.11559 10.8525L2.11042 3.83965C2.11042 3.83965 5.06748 1.87129 8.71559 1.87129V18.8372Z" fill="white"/>
<path fill-rule="evenodd" clip-rule="evenodd" d="M25.6341 0.727295C21.3544 0.727295 17.8849 3.24306 17.8849 3.24306L17.8927 11.0776C17.8927 17.5469 25.6341 21.2856 25.6341 21.2856C25.6341 21.2856 33.3768 17.7631 33.3768 11.0582C33.3768 4.35471 33.3794 3.24435 33.3794 3.24435C33.3794 3.24435 29.9111 0.727295 25.6341 0.727295ZM25.7156 18.8372C25.7156 18.8372 19.1156 15.9125 19.1156 10.8525L19.1104 3.83965C19.1104 3.83965 22.0675 1.87129 25.7156 1.87129V18.8372Z" fill="white"/>
</svg>
