<svg width="37" height="22" viewBox="0 0 37 22" fill="none" xmlns="http://www.w3.org/2000/svg">
<g clip-path="url(#clip0_298_1310)">
<path fill-rule="evenodd" clip-rule="evenodd" d="M17.4167 1.36048e-05L21.0833 0C21.3264 -8.7419e-07 21.5595 0.0965754 21.7315 0.268483C21.9034 0.44039 22 0.673548 22 0.916664V4.58334C22 4.82646 21.9034 5.05961 21.7315 5.23153L10.9214 16.0417L12.5648 17.6852C12.9228 18.0431 12.9228 18.6235 12.5648 18.9815C12.2069 19.3396 11.6265 19.3396 11.2685 18.9815L8.97682 16.6898L8.67511 16.3882L5.49991 19.2459C5.50088 19.9499 5.233 20.6562 4.69454 21.1946C3.6206 22.2686 1.8794 22.2686 0.805456 21.1946C-0.268486 20.1206 -0.268486 18.3794 0.805456 17.3055C1.3439 16.767 2.0501 16.4992 2.75413 16.5002L5.61185 13.3249L5.31013 13.0232L3.01848 10.7315C2.66051 10.3735 2.66051 9.79312 3.01848 9.43516C3.37647 9.07719 3.95687 9.07719 4.31485 9.43516L5.95831 11.0786L16.7685 0.268498C16.9404 0.096591 17.1736 1.44789e-05 17.4167 1.36048e-05ZM7.25467 12.375L7.52318 12.6435L9.35651 14.4768L9.625 14.7453L20.1667 4.20365V1.83333L17.7964 1.83334L7.25467 12.375ZM6.91001 14.623L4.58732 17.2038C4.62376 17.2365 4.65952 17.2705 4.69454 17.3055C4.72956 17.3405 4.76344 17.3762 4.79619 17.4127L7.37696 15.09L6.91001 14.623ZM2.93953 18.3529C2.64408 18.2912 2.32842 18.3753 2.10182 18.6019C1.74384 18.9599 1.74384 19.5402 2.10182 19.8983C2.4598 20.2562 3.0402 20.2562 3.39818 19.8983C3.62478 19.6717 3.70893 19.356 3.64707 19.0605C3.61196 18.8928 3.52985 18.7335 3.39818 18.6019C3.2665 18.4702 3.10722 18.3881 2.93953 18.3529Z" fill="white"/>
</g>
<g clip-path="url(#clip1_298_1310)">
<path fill-rule="evenodd" clip-rule="evenodd" d="M32.4167 1.36048e-05L36.0833 0C36.3264 -8.7419e-07 36.5595 0.0965754 36.7315 0.268483C36.9034 0.44039 37 0.673548 37 0.916664V4.58334C37 4.82646 36.9034 5.05961 36.7315 5.23153L25.9214 16.0417L27.5648 17.6852C27.9228 18.0431 27.9228 18.6235 27.5648 18.9815C27.2069 19.3396 26.6265 19.3396 26.2685 18.9815L23.9768 16.6898L23.6751 16.3882L20.4999 19.2459C20.5009 19.9499 20.233 20.6562 19.6945 21.1946C18.6206 22.2686 16.8794 22.2686 15.8055 21.1946C14.7315 20.1206 14.7315 18.3794 15.8055 17.3055C16.3439 16.767 17.0501 16.4992 17.7541 16.5002L20.6119 13.3249L20.3101 13.0232L18.0185 10.7315C17.6605 10.3735 17.6605 9.79312 18.0185 9.43516C18.3765 9.07719 18.9569 9.07719 19.3149 9.43516L20.9583 11.0786L31.7685 0.268498C31.9404 0.096591 32.1736 1.44789e-05 32.4167 1.36048e-05ZM22.2547 12.375L22.5232 12.6435L24.3565 14.4768L24.625 14.7453L35.1667 4.20365V1.83333L32.7964 1.83334L22.2547 12.375ZM21.91 14.623L19.5873 17.2038C19.6238 17.2365 19.6595 17.2705 19.6945 17.3055C19.7296 17.3405 19.7634 17.3762 19.7962 17.4127L22.377 15.09L21.91 14.623ZM17.9395 18.3529C17.6441 18.2912 17.3284 18.3753 17.1018 18.6019C16.7438 18.9599 16.7438 19.5402 17.1018 19.8983C17.4598 20.2562 18.0402 20.2562 18.3982 19.8983C18.6248 19.6717 18.7089 19.356 18.6471 19.0605C18.612 18.8928 18.5299 18.7335 18.3982 18.6019C18.2665 18.4702 18.1072 18.3881 17.9395 18.3529Z" fill="white"/>
</g>
<defs>
<clipPath id="clip0_298_1310">
<rect width="22" height="22" fill="white"/>
</clipPath>
<clipPath id="clip1_298_1310">
<rect width="22" height="22" fill="white" transform="translate(15)"/>
</clipPath>
</defs>
</svg>
