<svg width="16" height="21" viewBox="0 0 16 21" fill="none" xmlns="http://www.w3.org/2000/svg">
<path d="M8.26118 0.510234C8.37087 0.527896 8.47925 0.552846 8.58561 0.584916C9.14856 0.711381 9.65018 1.02855 10.0051 1.48243C10.36 1.93631 10.5462 2.49885 10.5321 3.0743V8.05307C10.5321 8.7133 10.2692 9.34648 9.80121 9.81333C9.3332 10.2802 8.69845 10.5425 8.03658 10.5425C7.37472 10.5425 6.73997 10.2802 6.27196 9.81333C5.80395 9.34648 5.54103 8.7133 5.54103 8.05307V3.0743C5.52895 2.72143 5.59227 2.37003 5.72677 2.04344C5.86127 1.71685 6.06387 1.42253 6.32113 1.18003C6.5784 0.93753 6.88443 0.752394 7.21892 0.636914C7.5534 0.521434 7.90869 0.478252 8.26118 0.510234ZM14.6498 5.56369C14.9081 5.65029 15.1308 5.81884 15.284 6.0436C15.4373 6.26835 15.5125 6.53695 15.4983 6.80838V8.05307C15.4983 11.7374 12.7781 14.7495 9.25941 15.3719V18.0106H10.5072C11.8797 18.0106 13.0027 19.1308 13.0027 20.5H2.99556C2.99556 19.1308 4.11856 18.0106 5.49112 18.0106H6.73889V15.3719C3.22016 14.7744 0.5 11.7374 0.5 8.05307V6.80838C0.5 6.47827 0.631462 6.16167 0.865466 5.92825C1.09947 5.69482 1.41685 5.56369 1.74778 5.56369C2.07871 5.56369 2.39609 5.69482 2.63009 5.92825C2.8641 6.16167 2.99556 6.47827 2.99556 6.80838V8.05307C2.99556 10.8163 5.2166 13.0318 7.98667 13.0318C10.7567 13.0318 12.9778 10.8163 12.9778 8.05307V6.80838C12.9748 6.62424 13.0128 6.44173 13.089 6.274C13.1652 6.10627 13.2778 5.95751 13.4187 5.83845C13.5595 5.71938 13.7251 5.63298 13.9035 5.58546C14.0819 5.53795 14.2686 5.53051 14.4502 5.56369C14.5 5.5607 14.55 5.5607 14.5999 5.56369H14.6498Z" fill="white"/>
</svg>
