<svg width="16" height="14" viewBox="0 0 16 14" fill="none" xmlns="http://www.w3.org/2000/svg">
<path d="M11.6241 2.13379C10.7117 2.13379 9.97679 2.86875 9.97679 3.78112C9.97679 3.8318 9.97679 3.90784 9.97679 3.95852L9.36854 4.36402L8.68427 4.13593C8.48152 3.45165 7.84793 2.97013 7.11297 2.97013C6.2006 2.97013 5.46564 3.70509 5.46564 4.61745C5.46564 4.76951 5.49098 4.89623 5.51633 5.02295C5.33892 5.17501 5.11083 5.32707 4.93343 5.47913C4.65465 5.30173 4.35053 5.17501 3.99572 5.17501C3.08335 5.17501 2.34839 5.90997 2.34839 6.82234C2.34839 7.7347 3.08335 8.46967 3.99572 8.46967C4.90808 8.46967 5.64305 7.7347 5.64305 6.82234C5.64305 6.67028 5.6177 6.54356 5.59236 6.41684C5.76976 6.26478 5.99785 6.11272 6.17526 5.96066C6.45404 6.13806 6.75816 6.26478 7.11297 6.26478C7.7719 6.26478 8.32946 5.88463 8.60824 5.32707L9.11511 5.50448C9.21648 5.52982 9.29251 5.55516 9.39388 5.55516C9.57129 5.55516 9.74869 5.50448 9.90075 5.4031L10.4837 5.02295C10.7878 5.30173 11.1679 5.45379 11.5988 5.45379C12.5111 5.45379 13.2461 4.71883 13.2461 3.80646C13.2461 2.89409 12.5365 2.13379 11.6241 2.13379ZM3.99572 7.32921C3.71694 7.32921 3.48885 7.10112 3.48885 6.82234C3.48885 6.54356 3.71694 6.31547 3.99572 6.31547C4.2745 6.31547 4.50259 6.54356 4.50259 6.82234C4.50259 7.10112 4.2745 7.32921 3.99572 7.32921ZM7.11297 5.09898C6.83419 5.09898 6.6061 4.87089 6.6061 4.59211C6.6061 4.31333 6.83419 4.08524 7.11297 4.08524C7.39175 4.08524 7.61984 4.31333 7.61984 4.59211C7.61984 4.87089 7.39175 5.09898 7.11297 5.09898ZM11.6241 4.28799C11.3453 4.28799 11.1172 4.0599 11.1172 3.78112C11.1172 3.50234 11.3453 3.27425 11.6241 3.27425C11.9029 3.27425 12.131 3.50234 12.131 3.78112C12.131 4.0599 11.9029 4.28799 11.6241 4.28799Z" fill="white"/>
<path d="M14.3358 0.359863H1.66402C0.802345 0.359863 0.0673828 1.06948 0.0673828 1.9565V8.64719C0.0673828 9.50887 0.777001 10.2438 1.66402 10.2438H7.44234V12.4741H4.65456C4.35044 12.4741 4.07166 12.7275 4.07166 13.057C4.07166 13.3864 4.32509 13.6399 4.65456 13.6399H11.3452C11.6494 13.6399 11.9281 13.3864 11.9281 13.057C11.9281 12.7275 11.6747 12.4741 11.3452 12.4741H8.5828V10.2438H14.3358C15.1975 10.2438 15.9324 9.53421 15.9324 8.64719V1.93116C15.9324 1.06948 15.1975 0.359863 14.3358 0.359863ZM14.792 8.62185C14.792 8.87528 14.5892 9.07803 14.3358 9.07803H1.66402C1.41059 9.07803 1.20784 8.87528 1.20784 8.62185V1.93116C1.20784 1.67773 1.41059 1.47498 1.66402 1.47498H14.3358C14.5892 1.47498 14.792 1.67773 14.792 1.93116V8.62185Z" fill="white"/>
</svg>
