<svg width="22" height="47" viewBox="0 0 22 47" fill="none" xmlns="http://www.w3.org/2000/svg">
<path d="M12.1376 42.6753V37.2691C13.8477 37.1436 15.4421 36.516 16.8583 35.2608C18.5862 33.7367 19.272 31.7015 19.272 29.4243C19.272 26.5553 19.272 24.7174 19.272 22.3864H16.2793C16.2793 24.7622 16.2793 26.6091 16.2793 29.5139C16.2793 30.3567 16.0834 31.1546 15.6825 31.8898C14.9967 33.127 13.9279 33.8622 12.5651 34.176C11.2113 34.4898 9.89307 34.3643 8.66393 33.6829C6.92708 32.7146 6.19672 31.1367 6.18782 29.2271C6.16108 22.2967 6.17 15.3664 6.18782 8.43602C6.18782 7.36912 6.38376 6.32015 7.00725 5.40567C8.52142 3.18222 11.9149 2.5905 14.3287 4.29394C15.638 5.21739 16.2348 6.50843 16.2615 8.06843C16.306 10.4712 16.2882 12.865 16.2882 15.2677H19.2542C19.2542 12.8291 19.2542 10.3995 19.2542 7.96084C19.2542 7.05532 19.085 6.18567 18.7821 5.32498C17.9004 2.86843 15.451 0.349121 11.2202 0.349121C8.62829 0.349121 6.78458 1.30843 5.42182 2.65326C3.80077 4.24912 3.20401 6.26636 3.1951 8.47188C3.17729 15.4022 3.18619 22.3326 3.1951 29.2629C3.1951 31.1636 3.65825 32.9298 4.90522 34.4091C6.09874 35.8257 7.61291 36.7222 9.43882 37.0898C9.73275 37.1526 10.0267 37.1884 10.3206 37.2243V42.6753C5.06554 42.756 0.94165 43.545 0.94165 44.5133C0.94165 45.5353 5.54652 46.3602 11.2202 46.3602C16.8939 46.3602 21.4987 45.5353 21.4987 44.5133C21.5077 43.545 17.3927 42.756 12.1376 42.6753Z" fill="white"/>
<path d="M13.1709 17.294C12.5475 17.294 11.9151 17.285 11.2827 17.285C10.7483 17.285 10.6057 17.1595 10.6057 16.3257V8.98294C10.6057 8.84846 10.6057 8.705 10.6057 8.57053C10.6057 8.40915 10.6325 8.2388 10.6859 8.08639C10.8462 7.63811 11.3005 7.52156 11.6835 7.79949C11.9685 8.0057 11.9507 8.28363 11.9507 8.57949C11.9507 10.7133 11.9507 12.8471 11.9329 14.9898C11.9329 15.2857 12.0219 15.4112 12.3248 15.4112C13.0819 15.4112 13.8211 15.4112 14.5871 15.4112C14.8276 15.4112 14.9256 15.3126 14.9256 15.0705C14.9167 12.6767 14.9256 10.274 14.9256 7.88018C14.9256 6.34708 13.4827 5.13673 12.2357 4.8319C10.9798 4.52708 9.82194 4.74225 8.82437 5.59398C7.92478 6.36501 7.61303 7.39604 7.60413 8.53466C7.59521 11.2602 7.60413 16.0657 7.60413 18.6209C7.59521 19.9209 8.45918 20.3602 9.34987 20.3602C9.97336 20.3602 10.6057 20.3691 11.2381 20.3691C11.8082 20.3691 11.9151 20.5395 11.9151 21.3285V28.6712C11.9151 28.8057 11.9151 28.9491 11.9151 29.0836C11.9151 29.245 11.8883 29.4154 11.8349 29.5678C11.6746 30.016 11.2203 30.1326 10.8373 29.8547C10.5523 29.6485 10.5701 29.3705 10.5701 29.0747C10.5701 26.9409 10.5701 24.8071 10.5879 22.6643C10.5879 22.3685 10.4989 22.2429 10.196 22.2429C9.43895 22.2429 8.69967 22.2429 7.93368 22.2429C7.69319 22.2429 7.59521 22.3416 7.59521 22.5836C7.60413 24.9774 7.62193 27.3802 7.62193 29.774C7.62193 31.4864 9.03814 32.5174 10.2851 32.8222C11.541 33.1271 12.6989 32.9119 13.6964 32.0602C14.596 31.2891 14.9078 30.2581 14.9167 29.1195C14.9256 26.2326 14.8989 21.0057 14.89 18.6029C14.7296 17.6347 13.9547 17.294 13.1709 17.294Z" fill="white"/>
</svg>
