<svg width="220" height="52" viewBox="0 0 220 52" fill="none" xmlns="http://www.w3.org/2000/svg">
<path d="M13.1376 44.6751V39.2689C14.8477 39.1434 16.4421 38.5158 17.8583 37.2606C19.5862 35.7365 20.272 33.7013 20.272 31.424C20.272 28.5551 20.272 26.7171 20.272 24.3861H17.2793C17.2793 26.762 17.2793 28.6089 17.2793 31.5137C17.2793 32.3565 17.0834 33.1544 16.6825 33.8896C15.9967 35.1268 14.9279 35.862 13.5651 36.1758C12.2113 36.4896 10.8931 36.364 9.66393 35.6827C7.92708 34.7144 7.19672 33.1365 7.18782 31.2268C7.16108 24.2965 7.17 17.3661 7.18782 10.4358C7.18782 9.36887 7.38376 8.31991 8.00725 7.40543C9.52142 5.18198 12.9149 4.59026 15.3287 6.2937C16.638 7.21715 17.2348 8.50818 17.2615 10.0682C17.306 12.4709 17.2882 14.8647 17.2882 17.2675H20.2542C20.2542 14.8289 20.2542 12.3992 20.2542 9.9606C20.2542 9.05508 20.085 8.18542 19.7821 7.32474C18.9004 4.86818 16.451 2.34888 12.2202 2.34888C9.62829 2.34888 7.78458 3.30819 6.42182 4.65301C4.80077 6.24888 4.20401 8.26612 4.1951 10.4716C4.17729 17.402 4.18619 24.3323 4.1951 31.2627C4.1951 33.1634 4.65825 34.9296 5.90522 36.4089C7.09874 37.8254 8.61291 38.722 10.4388 39.0896C10.7328 39.1523 11.0267 39.1882 11.3206 39.224V44.6751C6.06554 44.7558 1.94165 45.5447 1.94165 46.513C1.94165 47.5351 6.54652 48.3599 12.2202 48.3599C17.8939 48.3599 22.4987 47.5351 22.4987 46.513C22.5077 45.5447 18.3927 44.7558 13.1376 44.6751Z" fill="white"/>
<path d="M14.1709 19.2937C13.5475 19.2937 12.9151 19.2848 12.2827 19.2848C11.7483 19.2848 11.6057 19.1592 11.6057 18.3254V10.9827C11.6057 10.8482 11.6057 10.7048 11.6057 10.5703C11.6057 10.4089 11.6325 10.2386 11.6859 10.0861C11.8462 9.63787 12.3005 9.52131 12.6835 9.79925C12.9685 10.0055 12.9507 10.2834 12.9507 10.5792C12.9507 12.713 12.9507 14.8468 12.9329 16.9896C12.9329 17.2855 13.0219 17.411 13.3248 17.411C14.0819 17.411 14.8211 17.411 15.5871 17.411C15.8276 17.411 15.9256 17.3123 15.9256 17.0703C15.9167 14.6765 15.9256 12.2737 15.9256 9.87993C15.9256 8.34683 14.4827 7.13649 13.2357 6.83166C11.9798 6.52683 10.8219 6.742 9.82437 7.59373C8.92478 8.36477 8.61303 9.3958 8.60413 10.5344C8.59521 13.2599 8.60413 18.0655 8.60413 20.6206C8.59521 21.9206 9.45918 22.3599 10.3499 22.3599C10.9734 22.3599 11.6057 22.3689 12.2381 22.3689C12.8082 22.3689 12.9151 22.5392 12.9151 23.3282V30.671C12.9151 30.8055 12.9151 30.9489 12.9151 31.0834C12.9151 31.2448 12.8883 31.4151 12.8349 31.5675C12.6746 32.0158 12.2203 32.1323 11.8373 31.8544C11.5523 31.6482 11.5701 31.3703 11.5701 31.0744C11.5701 28.9406 11.5701 26.8068 11.5879 24.6641C11.5879 24.3682 11.4989 24.2427 11.196 24.2427C10.4389 24.2427 9.69967 24.2427 8.93368 24.2427C8.69319 24.2427 8.59521 24.3413 8.59521 24.5834C8.60413 26.9772 8.62193 29.3799 8.62193 31.7737C8.62193 33.4861 10.0381 34.5172 11.2851 34.822C12.541 35.1268 13.6989 34.9117 14.6964 34.0599C15.596 33.2889 15.9078 32.2579 15.9167 31.1192C15.9256 28.2323 15.8989 23.0055 15.89 20.6027C15.7296 19.6344 14.9547 19.2937 14.1709 19.2937Z" fill="white"/>
<path d="M196.603 30.0112L193.229 43.6283H189.1L190.792 36.8028L185.974 43.6283H183.075L181.653 36.8028L179.961 43.6283H175.831L179.205 30.0112H184.395L185.873 36.8936L190.77 30.0112H196.603ZM176.79 32.4871L174.647 41.1525C174.601 41.3797 174.489 41.6409 174.319 41.9248C174.15 42.2087 173.947 42.4699 173.733 42.7311C173.507 42.9924 173.281 43.1968 173.056 43.3785C172.83 43.5489 172.627 43.6397 172.469 43.6397H162.111C161.931 43.6397 161.773 43.5489 161.637 43.3785C161.502 43.2081 161.389 42.9924 161.31 42.7311C161.231 42.4699 161.175 42.2087 161.152 41.9248C161.13 41.6409 161.141 41.391 161.186 41.1525L163.33 32.4871C163.375 32.2713 163.488 32.0214 163.657 31.7375C163.826 31.4536 164.018 31.181 164.233 30.9198C164.447 30.6586 164.661 30.4542 164.887 30.2724C165.113 30.1021 165.304 30.0112 165.485 30.0112H175.843C176 30.0112 176.158 30.1021 176.305 30.2724C176.452 30.4428 176.576 30.6586 176.666 30.9198C176.756 31.181 176.813 31.4536 176.835 31.7375C176.858 32.0214 176.847 32.2713 176.79 32.4871ZM172.221 34.2928C172.255 34.1906 172.243 34.0998 172.209 33.9976C172.164 33.8953 172.108 33.8499 172.029 33.8499H167.38C167.301 33.8499 167.222 33.9067 167.155 34.0089C167.087 34.1111 167.042 34.2133 167.008 34.2928L165.756 39.3467C165.722 39.449 165.722 39.5398 165.756 39.642C165.79 39.7442 165.846 39.7897 165.925 39.7897H170.573C170.652 39.7897 170.731 39.7442 170.81 39.642C170.878 39.5398 170.935 39.449 170.968 39.3467L172.221 34.2928ZM139.568 43.6283H143.698L144.657 39.7897H140.527L139.568 43.6283ZM160.983 35.2355L161.649 32.4871C161.694 32.2713 161.705 32.0214 161.683 31.7375C161.66 31.4536 161.604 31.181 161.513 30.9198C161.423 30.6586 161.31 30.4542 161.152 30.2724C161.006 30.1021 160.848 30.0112 160.69 30.0112H150.332C150.152 30.0112 149.949 30.1021 149.734 30.2724C149.508 30.4428 149.294 30.6586 149.08 30.9198C148.865 31.181 148.674 31.4536 148.504 31.7375C148.335 32.0214 148.222 32.2826 148.177 32.4871L146.033 41.1525C145.988 41.3797 145.977 41.6409 146 41.9248C146.022 42.2087 146.079 42.4699 146.158 42.7311C146.236 42.9924 146.349 43.1968 146.485 43.3785C146.62 43.5489 146.778 43.6397 146.959 43.6397H157.316C157.474 43.6397 157.677 43.5489 157.903 43.3785C158.129 43.2081 158.354 42.9924 158.58 42.7311C158.806 42.4699 158.997 42.2087 159.167 41.9248C159.336 41.6409 159.449 41.391 159.494 41.1525L160.182 38.4041H156.053L155.804 39.3467C155.77 39.449 155.714 39.5398 155.646 39.642C155.567 39.7442 155.5 39.7897 155.409 39.7897H150.761C150.682 39.7897 150.625 39.7442 150.592 39.642C150.558 39.5398 150.558 39.449 150.592 39.3467L151.844 34.2928C151.878 34.2133 151.923 34.1111 151.991 34.0089C152.058 33.9067 152.126 33.8499 152.216 33.8499H156.865C156.944 33.8499 157.012 33.8953 157.045 33.9976C157.091 34.0998 157.091 34.1906 157.057 34.2928L156.831 35.2355H160.983Z" fill="white"/>
<path d="M120.546 38.404H124.675L123.987 41.1524C123.942 41.3795 123.829 41.6407 123.66 41.9247C123.49 42.2086 123.287 42.4698 123.073 42.731C122.847 42.9922 122.622 43.1967 122.396 43.3784C122.17 43.5487 121.967 43.6396 121.809 43.6396H111.452C111.271 43.6396 111.113 43.5487 110.978 43.3784C110.842 43.208 110.729 42.9922 110.651 42.731C110.572 42.4698 110.515 42.2086 110.493 41.9247C110.47 41.6407 110.481 41.3909 110.526 41.1524L112.67 32.487C112.715 32.2712 112.828 32.0213 112.997 31.7374C113.167 31.4535 113.358 31.1809 113.573 30.9197C113.787 30.6585 114.002 30.454 114.227 30.2723C114.453 30.102 114.645 30.0111 114.825 30.0111H125.171C125.341 30.0111 125.487 30.102 125.634 30.2723C125.781 30.4427 125.905 30.6585 125.995 30.9197C126.085 31.1809 126.142 31.4535 126.164 31.7374C126.187 32.0213 126.176 32.2825 126.131 32.487L125.465 35.2354H121.335L121.561 34.2927C121.595 34.1905 121.595 34.0997 121.55 33.9974C121.505 33.8952 121.448 33.8498 121.369 33.8498H116.721C116.642 33.8498 116.563 33.9066 116.495 34.0088C116.427 34.111 116.382 34.2132 116.348 34.2927L115.096 39.3466C115.062 39.4488 115.062 39.5397 115.096 39.6419C115.13 39.7441 115.186 39.7896 115.265 39.7896H119.914C119.993 39.7896 120.072 39.7441 120.151 39.6419C120.23 39.5397 120.275 39.4488 120.309 39.3466L120.546 38.404ZM111.023 31.726C111 31.4421 110.944 31.1695 110.854 30.9083C110.763 30.6471 110.651 30.4427 110.504 30.261C110.368 30.0906 110.199 29.9998 110.03 29.9998H98.1266L94.7531 43.6169H98.8826L101.297 33.8384H106.216C106.295 33.8384 106.363 33.8952 106.397 33.9974C106.442 34.0997 106.442 34.2019 106.408 34.2814L106.013 35.86C105.934 36.1553 105.799 36.3029 105.618 36.3029H101.636L101.071 38.5516L104.095 43.6055H108.789L106.577 39.8918H106.769C107.266 39.8804 107.683 39.8009 108.022 39.6533C108.371 39.517 108.665 39.3125 108.902 39.0513C109.15 38.7901 109.353 38.4608 109.5 38.0633C109.658 37.6658 109.804 37.2001 109.928 36.6777L110.966 32.4756C111.034 32.2712 111.045 32.0213 111.023 31.726ZM92.1919 30.0111L89.8789 39.3466C89.845 39.4488 89.7886 39.5397 89.7209 39.6419C89.642 39.7441 89.5742 39.7896 89.484 39.7896H84.8355C84.7565 39.7896 84.7001 39.7441 84.6662 39.6419C84.6324 39.5397 84.6324 39.4488 84.6662 39.3466L86.9792 30.0111H82.8497L80.0967 41.1524C80.0516 41.3795 80.0403 41.6407 80.0629 41.9247C80.0854 42.2086 80.1418 42.4698 80.2208 42.731C80.2998 42.9922 80.4126 43.1967 80.548 43.3784C80.6834 43.5487 80.8414 43.6396 81.0219 43.6396H91.3795C91.5375 43.6396 91.7406 43.5487 91.9662 43.3784C92.1919 43.208 92.4175 42.9922 92.6432 42.731C92.8688 42.4698 93.0606 42.2086 93.2299 41.9247C93.3991 41.6407 93.512 41.3909 93.5571 41.1524L96.3101 30.0111H92.1919ZM80.4803 32.487L78.3366 41.1524C78.2915 41.3795 78.1786 41.6407 78.0094 41.9247C77.8402 42.2086 77.6371 42.4698 77.4227 42.731C77.197 42.9922 76.9714 43.1967 76.7457 43.3784C76.5201 43.5487 76.317 43.6396 76.159 43.6396H65.8014C65.6209 43.6396 65.4629 43.5487 65.3275 43.3784C65.1922 43.208 65.0793 42.9922 65.0003 42.731C64.9214 42.4698 64.865 42.2086 64.8424 41.9247C64.8198 41.6407 64.8311 41.3909 64.8762 41.1524L67.02 32.487C67.0651 32.2712 67.1779 32.0213 67.3472 31.7374C67.5164 31.4535 67.7082 31.1809 67.9226 30.9197C68.1369 30.6585 68.3513 30.454 68.577 30.2723C68.8026 30.102 68.9944 30.0111 69.175 30.0111H79.5213C79.6905 30.0111 79.8372 30.102 79.9839 30.2723C80.1306 30.4427 80.2547 30.6585 80.3449 30.9197C80.4352 31.1809 80.4916 31.4535 80.5142 31.7374C80.5367 32.0213 80.5255 32.2712 80.4803 32.487ZM75.9108 34.2927C75.9446 34.1905 75.9446 34.0997 75.8995 33.9974C75.8544 33.8952 75.798 33.8498 75.719 33.8498H71.0705C70.9915 33.8498 70.9125 33.9066 70.8448 34.0088C70.7771 34.111 70.732 34.2132 70.6981 34.2927L69.4458 39.3466C69.4119 39.4488 69.4119 39.5397 69.4458 39.6419C69.4796 39.7441 69.536 39.7896 69.615 39.7896H74.2635C74.3425 39.7896 74.4215 39.7441 74.5005 39.6419C74.5794 39.5397 74.6246 39.4488 74.6584 39.3466L75.9108 34.2927ZM60.6339 34.7924H64.7634L65.3275 32.487C65.3727 32.2712 65.384 32.0213 65.3614 31.7374C65.3388 31.4535 65.2824 31.1809 65.1922 30.9197C65.1019 30.6585 64.9778 30.454 64.8311 30.2723C64.6844 30.102 64.5265 30.0111 64.3685 30.0111H54.5186C54.3381 30.0111 54.135 30.102 53.9206 30.2723C53.695 30.4427 53.4806 30.6585 53.2662 30.9197C53.0519 31.1809 52.8601 31.4535 52.6908 31.7374C52.5216 32.0213 52.4087 32.2825 52.3636 32.487L51.6528 35.3603C51.6415 35.6101 51.6867 35.8259 51.8108 36.0304C51.9349 36.2234 52.059 36.3938 52.1944 36.5301L59.28 39.8236H54.9474C54.8684 39.8236 54.812 39.7782 54.7894 39.676C54.7668 39.5738 54.7668 39.4829 54.8007 39.3807L54.9248 38.8583H50.7953L50.2312 41.1638C50.186 41.3909 50.1747 41.6521 50.1973 41.936C50.2199 42.22 50.2763 42.4812 50.3553 42.7424C50.4343 43.0036 50.5471 43.208 50.6825 43.3897C50.8179 43.5601 50.9758 43.651 51.1564 43.651H61.0175C61.1755 43.651 61.3786 43.5601 61.6042 43.3897C61.8299 43.2194 62.0555 43.0036 62.2812 42.7424C62.5068 42.4812 62.6986 42.22 62.8679 41.936C63.0371 41.6521 63.15 41.4023 63.1951 41.1638L63.9059 38.2904C63.9172 38.0406 63.8721 37.8248 63.7705 37.6431C63.669 37.4613 63.5336 37.291 63.3643 37.1206L56.2562 33.8271H60.5888C60.6678 33.8271 60.7242 33.8725 60.758 33.9747C60.7919 34.0769 60.7919 34.1678 60.758 34.27L60.6339 34.7924ZM130.52 38.722H136.838L137.797 34.906H131.479L131.727 33.8384H140.087L141.046 29.9998H128.534L125.16 43.6169H137.673L138.632 39.7782H130.271L130.52 38.722Z" fill="white"/>
<path d="M44.7026 25.7637H32.3931C32.1787 25.7637 31.9869 25.6614 31.8177 25.457C31.6485 25.2526 31.5243 24.9914 31.4228 24.6961C31.3213 24.3895 31.2648 24.0715 31.231 23.7421C31.1971 23.4127 31.2197 23.1061 31.2761 22.8335L33.826 12.5213C33.8824 12.2715 34.0178 11.9648 34.2209 11.6241C34.424 11.2834 34.6497 10.9541 34.9092 10.6474C35.1574 10.3408 35.4169 10.0909 35.6877 9.88649C35.9472 9.68206 36.1841 9.57985 36.3985 9.57985H48.708C48.8998 9.57985 49.0917 9.68206 49.2609 9.88649C49.4414 10.0909 49.5768 10.3521 49.6896 10.6474C49.7912 10.9541 49.8702 11.272 49.8927 11.6241C49.9266 11.9648 49.904 12.2715 49.8476 12.5213L49.0578 15.7922H44.1498L44.4093 14.6792C44.4431 14.5656 44.4431 14.4407 44.398 14.3271C44.3529 14.2135 44.2739 14.1454 44.1836 14.1454H38.6551C38.5535 14.1454 38.4745 14.2135 38.3956 14.3385C38.3166 14.4634 38.2602 14.577 38.215 14.6792L36.7257 20.6871C36.6806 20.8006 36.6806 20.9256 36.7257 21.0391C36.7596 21.1527 36.8273 21.2208 36.9288 21.2208H42.4461C42.5476 21.2208 42.6379 21.1641 42.7282 21.0391C42.8184 20.9256 42.8748 20.8006 42.92 20.6871L43.2133 19.5741H48.1213L47.2977 22.8449C47.2413 23.1175 47.1059 23.4241 46.9028 23.7535C46.6997 24.0828 46.4628 24.4008 46.2033 24.7075C45.9438 25.0141 45.673 25.264 45.4022 25.4684C45.1314 25.6615 44.8945 25.7637 44.7026 25.7637ZM50.3892 25.7637C50.1748 25.7637 49.983 25.6614 49.8137 25.457C49.6445 25.2526 49.5204 24.9914 49.4189 24.6961C49.3173 24.3895 49.2609 24.0715 49.227 23.7421C49.1932 23.4127 49.2158 23.1061 49.2722 22.8335L51.8221 12.5213C51.8785 12.2715 52.0139 11.9648 52.217 11.6241C52.4201 11.2834 52.6457 10.9541 52.9052 10.6474C53.1535 10.3408 53.413 10.0909 53.6837 9.88649C53.9433 9.68206 54.1802 9.57985 54.3946 9.57985H66.7041C66.8959 9.57985 67.0877 9.68206 67.2569 9.88649C67.4375 10.0909 67.5729 10.3521 67.6857 10.6474C67.7872 10.9541 67.8662 11.272 67.8888 11.6241C67.9226 11.9648 67.9001 12.2715 67.8437 12.5213L65.2937 22.8222C65.2373 23.0947 65.1019 23.4014 64.8988 23.7308C64.6958 24.0601 64.4588 24.3781 64.1993 24.6847C63.9398 24.9914 63.669 25.2412 63.3982 25.4457C63.1274 25.6501 62.8905 25.7523 62.6987 25.7523H50.3892V25.7637ZM62.4053 14.6678C62.4392 14.5542 62.4392 14.4293 62.3941 14.3157C62.3489 14.2022 62.27 14.134 62.1797 14.134H56.6511C56.5496 14.134 56.4706 14.2022 56.3916 14.3271C56.3126 14.452 56.2562 14.5656 56.2111 14.6678L54.7218 20.6757C54.6766 20.7893 54.6766 20.9142 54.7218 21.0278C54.7556 21.1413 54.8233 21.2095 54.9248 21.2095H60.4534C60.555 21.2095 60.6452 21.1527 60.7355 21.0278C60.8258 20.9142 60.8822 20.7893 60.9273 20.6757L62.4053 14.6678ZM75.3016 25.7637L73.6092 17.6434L71.5895 25.7637H66.6815L70.6869 9.56849H76.8586L78.6187 17.7569L84.4406 9.56849H91.4021L87.3967 25.7637H82.4887L84.5083 17.6434L78.7767 25.7637H75.3016ZM98.2508 25.7637L96.5583 17.6434L94.5387 25.7637H89.6307L93.6361 9.56849H99.8078L101.568 17.7569L107.39 9.56849H114.351L110.346 25.7637H105.438L107.458 17.6434L101.726 25.7637H98.2508ZM116.574 9.57985H131.456L130.316 14.1454H120.376L120.083 15.406H127.597L126.458 19.9375H118.943L118.65 21.1981H128.59L127.451 25.7637H112.569L116.574 9.57985ZM144.555 9.57985H149.463L145.458 25.775H140.956L136.364 17.8024L134.378 25.775H129.459L133.464 9.57985H137.91L142.592 17.5525L144.555 9.57985ZM155.68 14.134H150.129L151.269 9.56849H167.29L166.151 14.134H160.588L157.722 25.7637H152.814L155.68 14.134ZM173.394 23.8216H167.482L166.286 25.7637H160.882L171.149 9.56849H176.384L178.607 25.7637H173.665L173.394 23.8216ZM170.325 19.2901H172.807L172.401 15.9625L170.325 19.2901ZM197.449 17.5184C197.291 18.1431 197.122 18.6996 196.941 19.1652C196.761 19.6308 196.513 20.0283 196.231 20.3463C195.937 20.6643 195.587 20.9028 195.181 21.0618C194.775 21.2322 194.279 21.323 193.692 21.3458H193.455L196.084 25.7637H190.499L186.9 19.7558L187.577 17.0755H192.315C192.53 17.0755 192.688 16.8938 192.789 16.5417L193.252 14.6564C193.286 14.5542 193.286 14.4407 193.241 14.3157C193.195 14.1908 193.116 14.1227 193.026 14.1227H187.182L184.316 25.7523H179.408L183.413 9.55713H197.573C197.788 9.55713 197.979 9.65935 198.137 9.86378C198.307 10.0682 198.442 10.3294 198.544 10.6247C198.645 10.9313 198.724 11.2493 198.747 11.6014C198.78 11.9421 198.758 12.2488 198.701 12.4986L197.449 17.5184ZM204.839 9.57985L206.306 13.4072L209.668 9.57985H215.547L207.908 17.7001L205.922 25.7637H201.014L203.034 17.6661L199.435 9.56849H204.839V9.57985Z" fill="white"/>
</svg>
